<svg width="12" height="9" viewBox="0 0 12 9" fill="none" xmlns="http://www.w3.org/2000/svg">
<path d="M10.7916 4.416H11.9556V8.304C11.8596 8.336 11.7196 8.372 11.5356 8.412C11.3596 8.452 11.1516 8.492 10.9116 8.532C10.6796 8.572 10.4236 8.604 10.1436 8.628C9.86364 8.66 9.57964 8.676 9.29164 8.676C8.70764 8.676 8.17564 8.58 7.69564 8.388C7.21564 8.196 6.80364 7.916 6.45964 7.548C6.11564 7.18 5.84764 6.728 5.65564 6.192C5.47164 5.656 5.37964 5.04 5.37964 4.344C5.37964 3.648 5.48364 3.032 5.69164 2.496C5.90764 1.952 6.19564 1.496 6.55564 1.128C6.91564 0.76 7.33564 0.48 7.81564 0.288C8.30364 0.096 8.82364 0 9.37564 0C9.75164 0 10.0836 0.0240002 10.3716 0.0720005C10.6676 0.12 10.9196 0.176 11.1276 0.24C11.3356 0.304 11.5036 0.368 11.6316 0.432C11.7676 0.496 11.8596 0.544 11.9076 0.576L11.5356 1.548C11.3036 1.396 10.9956 1.272 10.6116 1.176C10.2276 1.072 9.83564 1.02 9.43564 1.02C9.01164 1.02 8.62364 1.096 8.27164 1.248C7.92764 1.4 7.63164 1.62 7.38364 1.908C7.14364 2.196 6.95564 2.548 6.81964 2.964C6.68364 3.372 6.61564 3.832 6.61564 4.344C6.61564 4.84 6.67164 5.292 6.78364 5.7C6.90364 6.108 7.07964 6.46 7.31164 6.756C7.55164 7.044 7.84364 7.268 8.18764 7.428C8.53964 7.588 8.95164 7.668 9.42364 7.668C9.75964 7.668 10.0436 7.652 10.2756 7.62C10.5156 7.58 10.6876 7.544 10.7916 7.512V4.416Z" fill="black"/>
<path d="M5.03598 7.50002V8.50802H3.78498H2.53398H1.28298H0.0319824V7.46852V6.42902V5.38952V4.35002V3.31052V2.27102V1.23152V0.192017H1.19598V2.01902V3.84602V4.75952V5.67302V6.58652V7.50002H2.15598H3.11598H4.07598H5.03598Z" fill="black"/>
</svg>
