<svg width="17" height="13" viewBox="0 0 17 13" fill="none" xmlns="http://www.w3.org/2000/svg">
<path d="M11.3789 4.65996L11.6909 3.73596L12.9869 4.28496L13.6349 4.55946L14.2829 4.83396L14.9309 5.10846L15.5789 5.38296L16.2269 5.65746L16.8749 5.93196V6.41196V6.89196L16.2269 7.16646L15.5789 7.44096L14.9309 7.71546L14.2829 7.98996L13.6349 8.26446L12.9869 8.53896L11.6909 9.08796L11.3789 8.16396L11.9114 7.94496L12.4439 7.72596L12.9764 7.50696L13.5089 7.28796L14.0414 7.06896L14.5739 6.84996L15.1064 6.63096L15.6389 6.41196L14.5739 5.97396L14.0414 5.75496L13.5089 5.53596L12.9764 5.31696L12.4439 5.09796L11.3789 4.65996Z" fill="black"/>
<path d="M6.98937 12.22H5.84937L9.91737 0.604004H11.0334L6.98937 12.22Z" fill="black"/>
<path d="M1.236 6.41196L1.7685 6.63096L2.301 6.84996L3.366 7.28796L4.431 7.72596L5.496 8.16396L5.184 9.08796L4.536 8.81346L3.888 8.53896L3.24 8.26446L2.592 7.98996L1.944 7.71546L1.296 7.44096L0.648 7.16646L0 6.89196V5.93196L1.296 5.38296L2.592 4.83396L3.888 4.28496L5.184 3.73596L5.496 4.65996L4.431 5.09796L3.366 5.53596L2.301 5.97396L1.236 6.41196Z" fill="black"/>
</svg>
