<svg width="11" height="10" viewBox="0 0 11 10" fill="none" xmlns="http://www.w3.org/2000/svg">
<path d="M7.28955 2.39984C7.74555 2.22384 8.18955 1.99984 8.62155 1.72784C9.05355 1.44784 9.44955 1.09984 9.80955 0.683838H10.6016V1.72334V2.24309V2.76284V3.28259V3.80234V4.32209V4.84184V5.36159V5.88134V6.40109V6.92084V7.44059V7.96034V8.48009V8.99984H9.48555V8.15384V7.30784V6.46184V5.61584V4.76984V3.92384V3.07784V2.23184C9.38955 2.31984 9.26955 2.41184 9.12555 2.50784C8.98955 2.60384 8.83755 2.69584 8.66955 2.78384C8.50955 2.87184 8.33755 2.95584 8.15355 3.03584C7.97755 3.11584 7.80555 3.18384 7.63755 3.23984L7.28955 2.39984Z" fill="black"/>
<path d="M0 4.83594C0 3.44394 0.244 2.37194 0.732 1.61994C1.228 0.867944 1.912 0.491943 2.784 0.491943C3.656 0.491943 4.336 0.867944 4.824 1.61994C5.32 2.37194 5.568 3.44394 5.568 4.83594C5.568 6.22794 5.32 7.29994 4.824 8.05194C4.336 8.80394 3.656 9.17994 2.784 9.17994C1.912 9.17994 1.228 8.80394 0.732 8.05194C0.244 7.29994 0 6.22794 0 4.83594ZM4.392 4.83594C4.392 4.37994 4.364 3.94794 4.308 3.53994C4.26 3.13194 4.172 2.77594 4.044 2.47194C3.924 2.16794 3.76 1.92794 3.552 1.75194C3.344 1.56794 3.088 1.47594 2.784 1.47594C2.48 1.47594 2.224 1.56794 2.016 1.75194C1.808 1.92794 1.64 2.16794 1.512 2.47194C1.392 2.77594 1.304 3.13194 1.248 3.53994C1.2 3.94794 1.176 4.37994 1.176 4.83594C1.176 5.29194 1.2 5.72394 1.248 6.13194C1.304 6.53994 1.392 6.89594 1.512 7.19994C1.64 7.50394 1.808 7.74794 2.016 7.93194C2.224 8.10794 2.48 8.19594 2.784 8.19594C3.088 8.19594 3.344 8.10794 3.552 7.93194C3.76 7.74794 3.924 7.50394 4.044 7.19994C4.172 6.89594 4.26 6.53994 4.308 6.13194C4.364 5.72394 4.392 5.29194 4.392 4.83594Z" fill="black"/>
</svg>
