<svg width="459" height="850" viewBox="0 0 459 850" fill="none" xmlns="http://www.w3.org/2000/svg">
<path d="M280.687 193L386.375 254.019V376.056L280.687 437.075L175 376.056V254.019L280.687 193Z" fill="url(#paint0_linear_718_464)"/>
<path d="M355 12.5L440.5 122L429 206.5L352 184.5L291 103.5L282 19.5L355 12.5Z" fill="url(#paint1_linear_718_464)"/>
<path d="M278 610.5L336 664.5L333 829.5L278 848L247.5 770.5L245.5 677.5L278 610.5Z" fill="url(#paint2_linear_718_464)"/>
<path d="M88.5 435L180.5 450.5L237 524L155 616L2 574V480L88.5 435Z" fill="url(#paint3_linear_718_464)"/>
<path d="M291.157 103.206L289.599 103.004L353.513 186.195L291.157 103.206ZM353.513 184.343L291.157 103.206L353.513 186.195V184.343ZM291.157 103.206L282.089 19.5561L289.599 103.004L291.157 103.206ZM353.513 184.343V186.195L429.545 208.958L353.513 184.343ZM282.089 19.5561L280.037 16.9209L289.599 103.004L282.089 19.5561ZM427.351 206.139L353.513 184.343L429.545 208.958L427.351 206.139Z" fill="#4FB99B"/>
<path d="M292.073 14.1225L364.426 6.53029L296.98 11.4518L292.073 14.1225ZM290.04 11.52L364.481 3.1543L294.957 8.86533L290.04 11.52ZM287.11 16.8239L359.007 9.69746L292.073 14.1225L287.11 16.8239ZM285.068 14.2052L359.035 6.31425L290.04 11.52L285.068 14.2052ZM282.089 19.5566L353.513 12.9083L287.11 16.8239L282.089 19.5566ZM280.037 16.9214L353.513 9.51801L285.068 14.2052L280.037 16.9214Z" fill="#47A78C"/>
<path d="M280.037 16.9213L282.089 19.5565L353.513 12.9082L280.037 16.9213Z" fill="#4FB99B"/>
<path d="M435.953 198.32L440.178 194.479L455.195 110.62L435.953 198.32ZM438.126 201.101L442.34 197.242L458.272 110.941L438.126 201.101ZM431.677 202.206L435.953 198.32L450.337 114.549L431.677 202.206ZM433.861 205.006L438.126 201.101L453.407 114.895L433.861 205.006ZM427.351 206.139L431.677 202.206L445.411 118.534L427.351 206.139ZM429.546 208.958L433.861 205.006L448.474 118.904L429.546 208.958Z" fill="#47A78C"/>
<path d="M429.546 208.958L443.472 122.971L427.351 206.139L429.546 208.958Z" fill="#4FB99B"/>
<path d="M364.427 6.53014L369.773 3.40577L296.981 11.4516L364.427 6.53014ZM364.481 3.15414L369.854 0.0371094L294.957 8.86517L364.481 3.15414ZM359.007 9.69731L364.427 6.53014L292.073 14.1223L359.007 9.69731ZM359.035 6.31409L364.481 3.15414L290.041 11.5199L359.035 6.31409ZM353.513 12.9082L359.007 9.69731L287.11 16.8238L353.513 12.9082ZM353.513 9.51786L359.035 6.31409L285.068 14.205L353.513 9.51786Z" fill="#47A78C"/>
<path d="M353.513 9.51758L280.037 16.921L353.513 12.9079V9.51758Z" fill="#4FB99B"/>
<path d="M450.337 114.549L435.953 198.32L455.195 110.62L450.337 114.549ZM453.407 114.895L438.126 201.101L458.272 110.941L453.407 114.895ZM445.411 118.534L431.677 202.206L450.337 114.549L445.411 118.534ZM448.474 118.904L433.861 205.006L453.407 114.895L448.474 118.904ZM440.416 122.574L427.351 206.139L445.411 118.534L440.416 122.574ZM443.472 122.971L429.546 208.958L448.474 118.904L443.472 122.971Z" fill="#47A78C"/>
<path d="M443.472 122.971L440.416 122.574L427.351 206.139L443.472 122.971Z" fill="#4FB99B"/>
<path d="M364.427 6.53014L450.337 114.55L369.772 3.40577L364.427 6.53014ZM450.337 114.55L455.195 110.62L369.772 3.40577L450.337 114.55ZM364.481 3.15414L453.407 114.895L369.854 0.0371094L364.481 3.15414ZM359.007 9.69731L445.411 118.534L364.427 6.53014L359.007 9.69731ZM453.407 114.895L458.272 110.941L369.854 0.0371094L453.407 114.895ZM445.411 118.534L450.337 114.55L364.427 6.53014L445.411 118.534ZM359.035 6.31409L448.474 118.904L364.481 3.15414L359.035 6.31409ZM353.513 12.9082L440.416 122.574L359.007 9.69731L353.513 12.9082ZM448.474 118.904L453.407 114.895L364.481 3.15414L448.474 118.904Z" fill="#47A78C"/>
<path d="M353.513 9.51758L353.513 12.9079L440.416 122.574L353.513 9.51758Z" fill="#4FB99B"/>
<path d="M440.416 122.574L445.411 118.534L359.007 9.69767L440.416 122.574ZM353.513 9.51822L443.472 122.971L359.035 6.31445L353.513 9.51822ZM443.472 122.971L448.474 118.905L359.035 6.31445L443.472 122.971Z" fill="#47A78C"/>
<path d="M443.472 122.97L353.513 9.51758L440.416 122.574L443.472 122.97Z" fill="#4FB99B"/>
<path d="M270.075 443.581L264.841 446.635L364.645 389.013L270.075 443.581ZM168.384 384.869L165.037 389.013L264.841 446.635L168.384 384.869ZM168.384 267.447L165.037 273.769V389.013L168.384 267.447ZM270.075 440.247L264.841 443.364L361.812 387.377L270.075 440.247ZM171.27 383.203L167.87 387.377L264.841 443.364L171.27 383.203ZM171.27 269.113L167.87 275.405V387.377L171.27 269.113ZM371.766 384.869L270.075 443.581L364.645 389.013L371.766 384.869ZM270.075 443.581L168.384 384.869L264.841 446.635L270.075 443.581ZM168.384 384.869V267.447L165.037 389.013L168.384 384.869ZM368.879 383.203L270.075 440.247L361.812 387.377L368.879 383.203ZM270.075 440.247L171.27 383.203L264.841 443.364L270.075 440.247ZM171.27 383.203V269.113L167.87 387.377L171.27 383.203ZM275.51 440.408L270.075 443.581L371.766 384.869L275.51 440.408ZM171.859 380.566L168.384 384.869L270.075 443.581L171.859 380.566ZM171.859 260.88L168.384 267.447V384.869L171.859 260.88ZM275.51 437.011L270.075 440.247L368.879 383.203L275.51 437.011ZM174.801 378.867L171.27 383.203L270.075 440.247L174.801 378.867ZM174.801 262.579L171.27 269.113V383.203L174.801 262.579ZM379.16 380.566L275.51 440.408L371.766 384.869L379.16 380.566ZM275.51 440.408L171.859 380.566L270.075 443.581L275.51 440.408ZM171.859 380.566V260.88L168.384 384.869L171.859 380.566ZM376.218 378.867L275.51 437.011L368.879 383.203L376.218 378.867ZM275.51 437.011L174.801 378.867L270.075 440.247L275.51 437.011ZM174.801 378.867V262.579L171.27 383.203L174.801 378.867ZM281.158 437.112L275.51 440.408L379.16 380.566L281.158 437.112ZM175.471 376.093L171.859 380.566L275.51 440.408L175.471 376.093ZM175.471 254.056L171.859 260.88V380.566L175.471 254.056ZM281.158 433.647L275.51 437.011L376.218 378.867L281.158 433.647ZM178.471 374.361L174.801 378.867L275.51 437.011L178.471 374.361ZM178.471 255.788L174.801 262.579V378.867L178.471 255.788ZM386.846 376.093L281.158 437.112L379.16 380.566L386.846 376.093ZM281.158 437.112L175.471 376.093L275.51 440.408L281.158 437.112ZM175.471 376.093V254.056L171.859 380.566L175.471 376.093ZM383.846 374.361L281.158 433.647L376.218 378.867L383.846 374.361ZM281.158 433.647L178.471 374.361L275.51 437.011L281.158 433.647ZM178.471 374.361V255.788L174.801 378.867L178.471 374.361Z" fill="#47A78C"/>
<path d="M178.471 255.788L175.471 254.056V376.093L178.471 255.788ZM175.471 254.056L178.471 255.788L281.158 196.501L175.471 254.056ZM178.471 374.361V255.788L175.471 376.093L178.471 374.361ZM281.158 193.037L175.471 254.056L281.158 196.501V193.037ZM178.471 374.361L175.471 376.093L281.158 437.112L178.471 374.361ZM281.158 193.037V196.501L383.845 255.788L281.158 193.037ZM281.158 433.648L178.471 374.361L281.158 437.112V433.648ZM386.845 254.056L281.158 193.037L383.845 255.788L386.845 254.056ZM281.158 433.648V437.112L386.845 376.093L281.158 433.648ZM386.845 254.056L383.845 255.788V374.361L386.845 254.056ZM383.845 374.361L281.158 433.648L386.845 376.093L383.845 374.361ZM386.845 376.093V254.056L383.845 374.361L386.845 376.093Z" fill="#4FB99B"/>
<path d="M86.7333 435.037L87.2646 436.439L179.93 450.225L86.7333 435.037Z" fill="#4FB99B"/>
<path d="M197.202 599.548L138.556 672.353L195.9 602.177L197.202 599.548ZM199.876 600.201L139.584 675.85L198.532 602.825L199.876 600.201Z" fill="#47A78C"/>
<path d="M181.578 449.059L86.7333 435.037L179.93 450.225L181.578 449.059Z" fill="#4FB99B"/>
<path d="M198.545 596.837L139.07 670.464L197.202 599.548L198.545 596.837ZM201.262 597.495L140.121 674.011L199.876 600.201L201.262 597.495Z" fill="#47A78C"/>
<path d="M87.2647 436.439L86.7334 435.037L1.95007 478.333L87.2647 436.439Z" fill="#4FB99B"/>
<path d="M199.929 594.04L139.604 668.502L198.544 596.837L199.929 594.04ZM202.693 594.704L140.68 672.101L201.262 597.496L202.693 594.704ZM201.358 591.153L140.159 666.465L199.929 594.04L201.358 591.153ZM138.556 672.354L138.06 674.176L195.9 602.178L138.556 672.354ZM204.169 591.823L141.26 670.117L202.693 594.704L204.169 591.823ZM139.584 675.85L139.065 677.623L198.532 602.826L139.584 675.85ZM40.5893 642.645L41.7716 644.848L138.06 674.176L40.5893 642.645ZM202.834 588.172L140.735 664.347L201.358 591.153L202.834 588.172ZM38.1479 644.871L39.3776 647.047L139.065 677.623L38.1479 644.871ZM139.07 670.464L138.556 672.354L197.202 599.549L139.07 670.464ZM205.694 588.847L141.863 668.054L204.169 591.823L205.694 588.847ZM140.121 674.011L139.584 675.85L199.876 600.202L140.121 674.011ZM39.3658 640.366L40.5893 642.645L138.556 672.354L39.3658 640.366ZM204.359 585.092L141.335 662.143L202.834 588.172L204.359 585.092ZM36.8751 642.619L38.1479 644.871L139.584 675.85L36.8751 642.619ZM139.604 668.502L139.07 670.464L198.544 596.837L139.604 668.502ZM207.269 585.772L142.491 665.907L205.694 588.847L207.269 585.772ZM138.556 672.354L40.5893 642.645L138.06 674.176L138.556 672.354Z" fill="#47A78C"/>
<path d="M4.81807 478.876L87.2647 436.438L1.95007 478.333L4.81807 478.876Z" fill="#4FB99B"/>
<path d="M140.68 672.101L140.121 674.01L201.262 597.495L140.68 672.101ZM38.099 638.006L39.3658 640.366L139.07 670.463L38.099 638.006ZM139.584 675.849L38.1478 644.87L139.065 677.622L139.584 675.849ZM205.936 581.907L141.959 659.848L204.359 585.091L205.936 581.907ZM35.5571 640.285L36.8751 642.618L140.121 674.01L35.5571 640.285ZM140.159 666.464L139.604 668.502L199.929 594.039L140.159 666.464ZM208.897 582.592L143.144 663.67L207.269 585.771L208.897 582.592ZM139.07 670.463L39.3658 640.366L138.556 672.353L139.07 670.463ZM141.26 670.116L140.68 672.101L202.693 594.703L141.26 670.116ZM36.7867 635.562L38.099 638.006L139.604 668.502L36.7867 635.562ZM140.121 674.01L36.8751 642.618L139.584 675.849L140.121 674.01ZM207.566 578.613L142.609 657.458L205.936 581.907L207.566 578.613ZM34.1913 637.869L35.5571 640.285L140.68 672.101L34.1913 637.869ZM140.735 664.346L140.159 666.464L201.358 591.152L140.735 664.346ZM210.582 579.304L143.826 661.339L208.897 582.592L210.582 579.304ZM139.604 668.502L38.099 638.006L139.07 670.463L139.604 668.502Z" fill="#47A78C"/>
<path d="M181.578 449.059L179.93 450.224L235.322 522.55L181.578 449.059Z" fill="#4FB99B"/>
<path d="M141.863 668.053L141.26 670.116L204.169 591.822L141.863 668.053ZM35.4262 633.027L36.7867 635.561L140.159 666.464L35.4262 633.027ZM140.679 672.101L35.557 640.285L140.121 674.01L140.679 672.101ZM209.254 575.205L143.288 654.965L207.566 578.613L209.254 575.205ZM32.7751 635.362L34.1913 637.869L141.26 670.116L32.7751 635.362ZM141.335 662.142L140.735 664.346L202.834 588.171L141.335 662.142ZM212.326 575.901L144.536 658.907L210.582 579.304L212.326 575.901ZM140.159 666.464L36.7867 635.561L139.604 668.502L140.159 666.464ZM142.49 665.906L141.863 668.053L205.693 588.846L142.49 665.906ZM34.0148 630.398L35.4262 633.027L140.735 664.346L34.0148 630.398ZM141.26 670.116L34.1913 637.869L140.679 672.101L141.26 670.116ZM31.3058 632.762L32.7751 635.362L141.863 668.053L31.3058 632.762ZM211.001 571.675L143.996 652.363L209.254 575.205L211.001 571.675ZM141.959 659.848L141.335 662.142L204.359 585.091L141.959 659.848ZM214.131 572.377L145.279 656.368L212.326 575.901L214.131 572.377ZM140.735 664.346L35.4262 633.027L140.159 666.464L140.735 664.346ZM143.144 663.67L142.49 665.906L207.269 585.771L143.144 663.67ZM32.5497 627.669L34.0148 630.398L141.335 662.142L32.5497 627.669ZM141.863 668.053L32.7751 635.362L141.26 670.116L141.863 668.053ZM29.7801 630.062L31.3058 632.762L142.49 665.906L29.7801 630.062ZM212.812 568.017L144.736 649.644L211.001 571.675L212.812 568.017ZM142.609 657.458L141.959 659.848L205.936 581.907L142.609 657.458ZM216.003 568.724L146.055 653.714L214.131 572.377L216.003 568.724ZM141.335 662.142L34.0148 630.398L140.735 664.346L141.335 662.142ZM143.826 661.339L143.144 663.67L208.897 582.592L143.826 661.339ZM31.0278 624.835L32.5497 627.669L141.959 659.848L31.0278 624.835ZM142.49 665.906L31.3058 632.762L141.863 668.053L142.49 665.906ZM28.1949 627.257L29.7801 630.062L143.144 663.67L28.1949 627.257ZM214.689 564.225L145.509 646.801L212.812 568.017L214.689 564.225ZM143.288 654.965L142.609 657.458L207.566 578.613L143.288 654.965ZM141.959 659.848L32.5497 627.669L141.335 662.142L141.959 659.848ZM217.943 564.937L146.867 650.937L216.003 568.724L217.943 564.937ZM144.536 658.907L143.826 661.339L210.582 579.304L144.536 658.907ZM29.4456 621.887L31.0278 624.835L142.609 657.458L29.4456 621.887ZM143.144 663.67L29.7801 630.062L142.49 665.906L143.144 663.67ZM26.5465 624.34L28.1949 627.257L143.826 661.339L26.5465 624.34ZM216.637 560.29L146.319 643.824L214.689 564.225L216.637 560.29ZM143.996 652.363L143.288 654.965L209.254 575.205L143.996 652.363Z" fill="#47A78C"/>
<path d="M239.276 523.299L181.578 449.059L235.322 522.55L239.276 523.299Z" fill="#4FB99B"/>
<path d="M142.61 657.458L31.028 624.835L141.959 659.849L142.61 657.458ZM219.957 561.007L147.717 648.029L217.943 564.937L219.957 561.007ZM145.279 656.368L144.537 658.908L212.326 575.901L145.279 656.368ZM27.7997 618.822L29.4458 621.888L143.288 654.965L27.7997 618.822ZM143.826 661.339L28.195 627.257L143.144 663.67L143.826 661.339ZM24.8313 621.305L26.5467 624.34L144.537 658.908L24.8313 621.305ZM218.66 556.205L147.169 640.705L216.637 560.29L218.66 556.205ZM144.736 649.645L143.996 652.363L211.001 571.675L144.736 649.645ZM143.288 654.965L29.4458 621.888L142.61 657.458L143.288 654.965ZM222.047 556.927L148.609 644.979L219.957 561.007L222.047 556.927ZM146.055 653.714L145.279 656.368L214.132 572.377L146.055 653.714ZM26.0857 615.629L27.7997 618.822L143.996 652.363L26.0857 615.629ZM144.537 658.908L26.5467 624.34L143.826 661.339L144.537 658.908ZM23.0448 618.143L24.8313 621.305L145.279 656.368L23.0448 618.143ZM220.762 551.96L148.059 637.432L218.66 556.205L220.762 551.96ZM145.51 646.801L144.736 649.645L212.812 568.018L145.51 646.801ZM143.996 652.363L27.7997 618.822L143.288 654.965L143.996 652.363ZM224.22 552.686L149.544 641.778L222.047 556.927L224.22 552.686Z" fill="#47A78C"/>
<path d="M4.81805 478.876L1.95005 478.333L0.0372314 577.427L4.81805 478.876Z" fill="#4FB99B"/>
<path d="M146.867 650.937L146.055 653.714L216.003 568.725L146.867 650.937ZM24.2996 612.302L26.0856 615.629L144.736 649.645L24.2996 612.302ZM145.279 656.368L24.8312 621.305L144.537 658.908L145.279 656.368ZM21.1825 614.848L23.0447 618.143L146.055 653.714L21.1825 614.848ZM222.947 547.546L148.995 633.994L220.762 551.96L222.947 547.546ZM146.32 643.825L145.51 646.801L214.689 564.225L146.32 643.825ZM144.736 649.645L26.0856 615.629L143.996 652.363L144.736 649.645ZM226.479 548.277L150.528 638.414L224.22 552.687L226.479 548.277ZM147.717 648.029L146.867 650.937L217.943 564.937L147.717 648.029ZM22.4367 608.833L24.2996 612.302L145.51 646.801L22.4367 608.833ZM146.055 653.714L23.0447 618.143L145.279 656.368L146.055 653.714ZM19.2398 611.41L21.1825 614.848L146.867 650.937L19.2398 611.41ZM225.221 542.953L149.979 630.378L222.947 547.546L225.221 542.953ZM147.168 640.705L146.32 643.825L216.637 560.291L147.168 640.705ZM145.51 646.801L24.2996 612.302L144.736 649.645L145.51 646.801ZM228.83 543.688L151.563 634.873L226.479 548.277L228.83 543.688ZM148.608 644.979L147.717 648.029L219.957 561.007L148.608 644.979ZM20.4921 605.21L22.4367 608.833L146.32 643.825L20.4921 605.21ZM146.867 650.937L21.1825 614.848L146.055 653.714L146.867 650.937ZM17.211 607.82L19.2398 611.41L147.717 648.029L17.211 607.82ZM227.589 538.169L151.015 626.57L225.221 542.953L227.589 538.169ZM148.059 637.432L147.168 640.705L218.66 556.205L148.059 637.432ZM146.32 643.825L22.4367 608.833L145.51 646.801L146.32 643.825ZM231.279 538.909L152.654 631.142L228.83 543.688L231.279 538.909ZM149.544 641.778L148.608 644.979L222.047 556.927L149.544 641.778ZM18.46 601.425L20.4921 605.21L147.168 640.705L18.46 601.425ZM147.717 648.029L19.2398 611.41L146.867 650.937L147.717 648.029ZM15.0906 604.067L17.211 607.82L148.608 644.979L15.0906 604.067ZM230.057 533.183L152.108 622.554L227.589 538.169L230.057 533.183ZM148.995 633.994L148.059 637.432L220.762 551.96L148.995 633.994ZM147.168 640.705L20.4921 605.21L146.32 643.825L147.168 640.705ZM233.831 533.926L153.805 627.206L231.279 538.909L233.831 533.926ZM150.528 638.414L149.544 641.778L224.22 552.687L150.528 638.414ZM16.3346 597.466L18.46 601.425L148.059 637.432L16.3346 597.466ZM148.608 644.979L17.211 607.82L147.717 648.029L148.608 644.979ZM12.8719 600.141L15.0906 604.067L149.544 641.778L12.8719 600.141ZM232.633 527.981L153.262 618.312L230.057 533.183L232.633 527.981Z" fill="#47A78C"/>
<path d="M4.05248 574.588L4.81805 478.876L0.0372314 577.427L4.05248 574.588Z" fill="#4FB99B"/>
<path d="M149.979 630.378L148.995 633.994L222.947 547.546L149.979 630.378ZM148.059 637.432L18.46 601.425L147.168 640.705L148.059 637.432ZM236.495 528.728L155.021 623.045L233.831 533.926L236.495 528.728ZM151.563 634.873L150.528 638.414L226.479 548.277L151.563 634.873ZM14.1092 593.321L16.3346 597.466L148.995 633.994L14.1092 593.321ZM149.544 641.778L15.0906 604.067L148.608 644.979L149.544 641.778ZM10.5482 596.029L12.8719 600.141L150.528 638.414L10.5482 596.029ZM235.322 522.55L154.483 613.826L232.633 527.981L235.322 522.55ZM151.015 626.57L149.979 630.378L225.221 542.953L151.015 626.57ZM148.995 633.994L16.3346 597.466L148.059 637.432L148.995 633.994ZM239.276 523.299L156.308 618.642L236.495 528.728L239.276 523.299Z" fill="#47A78C"/>
<path d="M239.276 523.299L235.322 522.55L154.483 613.826L239.276 523.299Z" fill="#4FB99B"/>
<path d="M152.654 631.142L151.563 634.873L228.83 543.688L152.654 631.142ZM11.7767 588.976L14.1093 593.321L149.979 630.378L11.7767 588.976ZM150.528 638.414L12.872 600.141L149.544 641.778L150.528 638.414ZM8.11179 591.717L10.5483 596.029L151.563 634.873L8.11179 591.717ZM152.108 622.554L151.015 626.57L227.589 538.169L152.108 622.554ZM149.979 630.378L14.1093 593.321L148.995 633.994L149.979 630.378ZM153.805 627.206L152.654 631.142L231.279 538.909L153.805 627.206ZM9.32906 584.417L11.7767 588.976L151.015 626.57L9.32906 584.417ZM151.563 634.873L10.5483 596.029L150.528 638.414L151.563 634.873ZM5.55413 587.191L8.11179 591.717L152.654 631.142L5.55413 587.191ZM153.262 618.312L152.108 622.554L230.057 533.183L153.262 618.312ZM151.015 626.57L11.7767 588.976L149.979 630.378L151.015 626.57ZM155.021 623.045L153.805 627.206L233.831 533.926L155.021 623.045ZM6.75751 579.627L9.32906 584.417L152.108 622.554L6.75751 579.627ZM152.654 631.142L8.11179 591.717L151.563 634.873L152.654 631.142ZM2.86602 582.434L5.55413 587.191L153.805 627.206L2.86602 582.434ZM152.108 622.554L9.32906 584.417L151.015 626.57L152.108 622.554ZM154.483 613.826L153.262 618.312L232.633 527.981L154.483 613.826ZM156.308 618.642L155.021 623.045L236.495 528.728L156.308 618.642ZM4.05248 574.588L6.75751 579.627L153.262 618.312L4.05248 574.588ZM153.805 627.206L5.55413 587.191L152.654 631.142L153.805 627.206ZM0.0372314 577.428L2.86602 582.434L155.021 623.045L0.0372314 577.428Z" fill="#47A78C"/>
<path d="M156.308 618.642L239.276 523.299L154.483 613.826L156.308 618.642Z" fill="#4FB99B"/>
<path d="M153.262 618.312L6.75745 579.627L152.108 622.554L153.262 618.312Z" fill="#47A78C"/>
<path d="M4.05248 574.588L0.0372314 577.427L156.308 618.641L4.05248 574.588Z" fill="#4FB99B"/>
<path d="M155.021 623.045L2.86602 582.433L153.805 627.205L155.021 623.045ZM154.483 613.825L4.05248 574.588L153.262 618.312L154.483 613.825ZM156.308 618.641L0.0372314 577.427L155.021 623.045L156.308 618.641Z" fill="#47A78C"/>
<path d="M154.483 613.825L4.05237 574.588L156.308 618.641L154.483 613.825Z" fill="#4FB99B"/>
<path d="M247.83 770.148L246.773 677.896L247.143 770.958L247.83 770.148ZM246.773 677.896L246.037 676.607L247.143 770.958L246.773 677.896ZM247.83 770.148L247.143 770.958L278.649 849.772L247.83 770.148ZM246.037 676.607L246.773 677.896L278.649 610.798L246.037 676.607ZM278.649 846.616L247.83 770.148L278.649 849.772V846.616ZM278.649 607.037L246.037 676.607L278.649 610.798V607.037Z" fill="#4FB99B"/>
<path d="M305.916 841.333L312.443 840.069L376.339 820.717L305.916 841.333ZM305.885 844.387L312.404 843.098L378.788 824.194L305.885 844.387ZM299.276 842.62L305.916 841.333L368.042 822.241L299.276 842.62ZM299.252 845.698L305.885 844.387L370.439 825.776L299.252 845.698ZM292.521 843.928L299.276 842.62L359.544 823.803L292.521 843.928ZM292.504 847.032L299.252 845.698L361.886 827.396L292.504 847.032ZM285.646 845.26L292.521 843.928L350.839 825.402L285.646 845.26ZM285.637 848.39L292.504 847.032L353.123 829.055L285.637 848.39ZM278.649 846.616L285.646 845.26L341.919 827.041L278.649 846.616ZM278.649 849.772L285.637 848.39L344.14 830.756L278.649 849.772Z" fill="#47A78C"/>
<path d="M278.649 846.616L278.649 849.772L334.931 832.501L278.649 846.616Z" fill="#4FB99B"/>
<path d="M308.285 613.853L373.291 667.353L315.352 614.582L308.285 613.853ZM308.323 610.237L376.054 664.643L315.398 611L308.323 610.237ZM301.085 613.111L364.355 667.029L308.285 613.853L301.085 613.111ZM301.114 609.46L367.044 664.28L308.323 610.237L301.114 609.46ZM293.749 612.355L355.188 666.697L301.085 613.111L293.749 612.355ZM293.768 608.668L357.798 663.908L301.114 609.46L293.768 608.668ZM286.271 611.584L345.781 666.356L293.749 612.355L286.271 611.584ZM368.042 822.241L305.916 841.333L376.339 820.717L368.042 822.241ZM286.281 607.86L348.306 663.525L293.768 608.668L286.281 607.86ZM370.439 825.776L305.885 844.387L378.788 824.194L370.439 825.776ZM278.649 610.798L336.123 666.006L286.271 611.584L278.649 610.798ZM359.544 823.803L299.276 842.62L368.042 822.241L359.544 823.803Z" fill="#47A78C"/>
<path d="M278.649 607.037L278.649 610.798L336.123 666.006L278.649 607.037Z" fill="#4FB99B"/>
<path d="M278.649 607.037L338.559 663.133L286.281 607.86L278.649 607.037ZM361.886 827.395L299.252 845.698L370.439 825.775L361.886 827.395ZM350.839 825.402L292.521 843.928L359.544 823.803L350.839 825.402ZM353.123 829.055L292.504 847.032L361.886 827.395L353.123 829.055ZM341.919 827.041L285.646 845.26L350.839 825.402L341.919 827.041ZM344.14 830.756L285.637 848.39L353.123 829.055L344.14 830.756ZM332.776 828.721L278.649 846.616L341.919 827.041L332.776 828.721ZM334.931 832.5L278.649 849.772L344.14 830.756L334.931 832.5Z" fill="#47A78C"/>
<path d="M332.776 828.722L278.649 846.617L334.931 832.501L332.776 828.722Z" fill="#4FB99B"/>
<path d="M373.291 667.353L382.005 667.668L315.352 614.582L373.291 667.353ZM376.054 664.643L384.837 664.996L315.399 611L376.054 664.643ZM364.355 667.029L373.291 667.353L308.285 613.853L364.355 667.029ZM367.044 664.28L376.054 664.643L308.323 610.237L367.044 664.28ZM355.188 666.697L364.355 667.029L301.086 613.111L355.188 666.697ZM357.798 663.908L367.044 664.28L301.114 609.46L357.798 663.908ZM345.781 666.356L355.188 666.697L293.749 612.355L345.781 666.356ZM348.306 663.525L357.798 663.908L293.768 608.668L348.306 663.525ZM336.123 666.006L345.781 666.356L286.271 611.584L336.123 666.006ZM368.042 822.241L376.339 820.717L382.005 667.668L368.042 822.241ZM338.56 663.133L348.306 663.525L286.281 607.86L338.56 663.133Z" fill="#47A78C"/>
<path d="M338.559 663.133L278.649 607.037L336.123 666.006L338.559 663.133Z" fill="#4FB99B"/>
<path d="M370.439 825.776L378.788 824.194L384.837 664.996L370.439 825.776ZM359.544 823.803L368.041 822.241L373.291 667.353L359.544 823.803ZM361.886 827.395L370.439 825.776L376.054 664.642L361.886 827.395ZM373.291 667.353L368.041 822.241L382.005 667.668L373.291 667.353ZM350.839 825.402L359.544 823.803L364.355 667.029L350.839 825.402ZM376.054 664.642L370.439 825.776L384.837 664.996L376.054 664.642ZM353.122 829.055L361.886 827.395L367.044 664.28L353.122 829.055ZM364.355 667.029L359.544 823.803L373.291 667.353L364.355 667.029ZM341.919 827.041L350.839 825.402L355.188 666.697L341.919 827.041ZM367.044 664.28L361.886 827.395L376.054 664.642L367.044 664.28ZM344.14 830.756L353.122 829.055L357.798 663.907L344.14 830.756ZM355.188 666.697L350.839 825.402L364.355 667.029L355.188 666.697ZM332.776 828.721L341.919 827.041L345.781 666.356L332.776 828.721ZM357.798 663.907L353.122 829.055L367.044 664.28L357.798 663.907ZM334.931 832.501L344.14 830.756L348.306 663.525L334.931 832.501ZM345.781 666.356L341.919 827.041L355.188 666.697L345.781 666.356Z" fill="#47A78C"/>
<path d="M334.931 832.5L338.559 663.133L332.776 828.721L334.931 832.5Z" fill="#4FB99B"/>
<path d="M348.306 663.525L344.14 830.756L357.798 663.907L348.306 663.525ZM336.123 666.006L332.776 828.721L345.781 666.356L336.123 666.006Z" fill="#47A78C"/>
<path d="M338.559 663.133L336.123 666.006L332.776 828.721L338.559 663.133Z" fill="#4FB99B"/>
<path d="M338.559 663.133L334.931 832.5L348.306 663.525L338.559 663.133Z" fill="#47A78C"/>
<defs>
<linearGradient id="paint0_linear_718_464" x1="280.687" y1="193" x2="280.687" y2="437.075" gradientUnits="userSpaceOnUse">
<stop stop-color="#4FBA9C"/>
<stop offset="1" stop-color="white" stop-opacity="0"/>
</linearGradient>
<linearGradient id="paint1_linear_718_464" x1="341.687" y1="20" x2="341.687" y2="264.075" gradientUnits="userSpaceOnUse">
<stop stop-color="#4FBA9C"/>
<stop offset="1" stop-color="white" stop-opacity="0"/>
</linearGradient>
<linearGradient id="paint2_linear_718_464" x1="346.037" y1="585" x2="346.037" y2="829.075" gradientUnits="userSpaceOnUse">
<stop stop-color="#4FBA9C"/>
<stop offset="1" stop-color="white" stop-opacity="0"/>
</linearGradient>
<linearGradient id="paint3_linear_718_464" x1="107.687" y1="415" x2="107.687" y2="659.074" gradientUnits="userSpaceOnUse">
<stop stop-color="#4FBA9C"/>
<stop offset="1" stop-color="white" stop-opacity="0"/>
</linearGradient>
</defs>
</svg>
