<svg width="1189" height="1152" viewBox="0 0 1189 1152" fill="none" xmlns="http://www.w3.org/2000/svg">
<circle cx="271" cy="28" r="23" stroke="#62C5A9" stroke-width="10"/>
<path d="M484.455 991.705C485.44 991.156 486.851 989.695 487.356 987.831C487.919 985.749 488.937 992.049 490.559 991.705" stroke="#62C5A9" stroke-width="2" stroke-linecap="round"/>
<path d="M492.224 996.016C493.209 995.467 494.62 994.005 495.125 992.142C495.688 990.06 496.706 996.36 498.328 996.016" stroke="#62C5A9" stroke-width="2" stroke-linecap="round"/>
<path d="M497.773 991.705C498.759 991.156 500.17 989.695 500.675 987.831C501.238 985.749 502.256 992.049 503.878 991.705" stroke="#62C5A9" stroke-width="2" stroke-linecap="round"/>
<path d="M508.947 922.748C502.22 989.815 515.102 980.577 513.098 1020.48C511.094 1060.39 496.924 1064.83 491.914 1090.88" stroke="#62C5A9" stroke-width="3" stroke-linecap="round"/>
<path d="M477.603 917.719C473.756 965.367 486.008 970.169 481.022 989.745C476.036 1009.32 483.301 1004.33 479.74 1029.08C476.178 1053.83 462.644 1059.19 467.488 1089.29" stroke="#62C5A9" stroke-width="3" stroke-linecap="round"/>
<path d="M499.941 936.398C503.271 947.175 494.67 946.097 497.999 959.748" stroke="#62C5A9" stroke-linecap="round"/>
<path d="M491.482 949.33C494.646 960.273 486.472 959.178 489.636 973.039" stroke="#62C5A9" stroke-linecap="round"/>
<path d="M497.449 1047.19C498.003 1058.85 490.434 1054.71 490.329 1069.16" stroke="#62C5A9" stroke-linecap="round"/>
<path d="M489.881 1010.48C493.338 1021.27 485.14 1020.54 488.676 1034.25" stroke="#62C5A9" stroke-linecap="round"/>
<path d="M486.487 917C489.651 927.942 481.478 926.848 484.642 940.709" stroke="#62C5A9" stroke-linecap="round"/>
<path d="M501.471 997.466C504.635 1008.41 496.462 1007.31 499.625 1021.17" stroke="#62C5A9" stroke-linecap="round"/>
<path d="M477.127 1064.23C480.729 1074.95 472.523 1074.41 476.243 1088.04" stroke="#62C5A9" stroke-linecap="round"/>
<path d="M271.004 72C274.004 364 449.004 389.5 588.504 389.5C728.004 389.5 746.504 521.5 734.004 585C721.504 648.5 692.004 698 636.004 709C580.004 720 536.504 697 488.504 655C440.504 613 317.503 418.5 163.503 463.5C88.8069 485.327 34.5037 566.5 17.5037 628.5C0.503707 690.5 -31.9444 858.034 124.504 944C271.004 1024.5 301 1010.5 453 1010.5" stroke="#62C5A9" stroke-width="5" stroke-linecap="round" stroke-dasharray="25 25"/>
<path d="M534.5 1007.5C746.5 1014.5 721.5 1055.5 812.5 1108.5C885.3 1150.9 1091.83 1151.5 1186 1146.5" stroke="#62C5A9" stroke-width="5" stroke-linecap="round" stroke-dasharray="25 25"/>
<path d="M192.06 487.148C193.824 481.554 201.741 481.554 203.504 487.148L222.753 548.196C223.972 552.062 221.085 556 217.031 556H178.534C174.479 556 171.592 552.062 172.811 548.196L192.06 487.148Z" fill="#ADF0DD"/>
<path d="M171.826 505.395C174.135 501.395 179.909 501.395 182.218 505.395L206.486 547.428C208.795 551.428 205.909 556.428 201.29 556.428H152.754C148.135 556.428 145.249 551.428 147.558 547.428L171.826 505.395Z" fill="#ADF0DD"/>
<path d="M224.316 519.492C226.648 515.616 232.267 515.616 234.598 519.492L251.417 547.441C253.823 551.44 250.943 556.535 246.276 556.535H212.639C207.972 556.535 205.092 551.44 207.498 547.441L224.316 519.492Z" fill="#ADF0DD"/>
<path d="M197.526 488.936C197.946 485.805 202.121 485.029 203.639 487.8V487.8C203.729 487.965 203.805 488.138 203.866 488.316L206.985 497.465L212.55 516.299L216.645 529.118C217.171 530.765 216.961 532.558 216.07 534.039L211.971 540.847C209.917 544.259 213.612 548.23 217.163 546.427V546.427C217.92 546.042 218.533 545.424 218.913 544.665L220.09 542.311C221.318 539.856 224.411 539.02 226.708 540.522V540.522C229.701 542.479 233.683 540.413 233.808 536.84L234.166 526.572L234.38 521.008V521.008C234.329 520.496 235.008 520.271 235.273 520.712L245.081 537.059L248.933 543.266L253.642 551.185V551.185C255.051 553.533 253.35 556.518 250.613 556.504L152.782 556.009C151.621 556.003 150.49 555.645 149.538 554.983V554.983C145.55 552.209 146.605 546.042 151.288 544.752L161.966 541.81C162.583 541.64 163.222 541.57 163.86 541.602L176.369 542.229C180.333 542.427 183.394 538.791 182.523 534.919L182.062 532.873C181.984 532.526 181.937 532.172 181.921 531.816L181.543 523.104C181.525 522.707 181.555 522.309 181.632 521.918L182.036 519.867C182.797 516.002 187.958 515.174 189.89 518.607L190.938 520.47C192.458 523.172 196.505 522.601 197.218 519.583L197.791 517.155C198.218 515.348 200.547 514.84 201.687 516.306V516.306C203.204 518.256 206.291 516.627 205.537 514.275L200.784 499.435C200.638 498.98 200.428 498.549 200.16 498.155L197.834 494.734C197.249 493.874 197.003 492.829 197.141 491.799L197.526 488.936Z" fill="#62C5A9"/>
<path d="M217.206 484.698L214 484L217.323 486.187C217.853 486.536 218.424 486.819 219.023 487.029L219.457 487.181C220.271 487.467 221.001 487.951 221.58 488.589C222.266 489.345 223.455 489.345 224.141 488.589L224.308 488.406C224.781 487.884 225.346 487.452 225.973 487.13L227.909 486.137L231 484L229.21 484.325C227.402 484.652 225.683 485.36 224.168 486.401L223.786 486.663C223.157 487.096 222.336 487.132 221.671 486.757L219.716 485.654C218.932 485.211 218.086 484.889 217.206 484.698Z" fill="#62C5A9"/>
<path d="M212.579 493.354L211 493L213.151 494.458C213.493 494.691 213.864 494.879 214.253 495.02L214.529 495.12C215.057 495.311 215.528 495.632 215.899 496.052C216.342 496.555 217.125 496.555 217.568 496.052L217.677 495.929C217.979 495.587 218.34 495.302 218.744 495.088L220 494.425L222 493L221.058 493.176C219.746 493.421 218.503 493.947 217.413 494.718C216.958 495.04 216.358 495.067 215.876 494.787L215.133 494.355C214.338 493.893 213.476 493.555 212.579 493.354Z" fill="#62C5A9"/>
<path d="M227.732 498.15L227 498L228.172 498.728C228.36 498.845 228.561 498.939 228.77 499.009L228.928 499.061C229.214 499.156 229.473 499.319 229.682 499.536C229.925 499.789 230.33 499.789 230.573 499.536L230.631 499.476C230.803 499.297 231.005 499.15 231.228 499.042L231.909 498.712L233 498L232.468 498.091C231.763 498.212 231.091 498.475 230.491 498.864C230.244 499.024 229.93 499.037 229.67 498.899L229.382 498.746C228.863 498.469 228.308 498.269 227.732 498.15Z" fill="#62C5A9"/>
</svg>
