<svg width="928" height="997" viewBox="0 0 928 997" fill="none" xmlns="http://www.w3.org/2000/svg">
<circle cx="261" cy="28" r="23" stroke="#62C5A9" stroke-width="10"/>
<path d="M217.001 839.705C217.987 839.156 219.398 837.695 219.903 835.831C220.466 833.749 221.484 840.049 223.106 839.705" stroke="#62C5A9" stroke-width="2" stroke-linecap="round"/>
<path d="M224.771 844.016C225.756 843.467 227.167 842.005 227.672 840.142C228.235 838.06 229.253 844.36 230.875 844.016" stroke="#62C5A9" stroke-width="2" stroke-linecap="round"/>
<path d="M230.32 839.705C231.306 839.156 232.717 837.695 233.221 835.831C233.785 833.749 234.803 840.049 236.425 839.705" stroke="#62C5A9" stroke-width="2" stroke-linecap="round"/>
<path d="M241.494 770.748C234.767 837.815 247.649 828.577 245.645 868.484C243.641 908.392 229.471 912.826 224.461 938.876" stroke="#62C5A9" stroke-width="3" stroke-linecap="round"/>
<path d="M210.149 765.719C206.303 813.367 218.555 818.169 213.569 837.745C208.582 857.321 215.848 852.335 212.287 877.082C208.725 901.83 195.191 907.185 200.035 937.289" stroke="#62C5A9" stroke-width="3" stroke-linecap="round"/>
<path d="M232.488 784.398C235.818 795.175 227.216 794.097 230.546 807.748" stroke="#62C5A9" stroke-linecap="round"/>
<path d="M224.028 797.33C227.193 808.273 219.019 807.178 222.183 821.039" stroke="#62C5A9" stroke-linecap="round"/>
<path d="M229.995 895.186C230.55 906.848 222.981 902.708 222.876 917.161" stroke="#62C5A9" stroke-linecap="round"/>
<path d="M222.428 858.476C225.885 869.269 217.687 868.544 221.223 882.254" stroke="#62C5A9" stroke-linecap="round"/>
<path d="M219.034 765C222.198 775.942 214.025 774.848 217.188 788.709" stroke="#62C5A9" stroke-linecap="round"/>
<path d="M234.018 845.466C237.182 856.408 229.008 855.314 232.172 869.175" stroke="#62C5A9" stroke-linecap="round"/>
<path d="M209.674 912.235C213.276 922.948 205.07 922.409 208.789 936.036" stroke="#62C5A9" stroke-linecap="round"/>
<path d="M261.003 72C264.003 364 462.698 254.283 497 389.5C513.996 456.5 477.496 550.5 403 539M264 515C159.5 481.5 24.5033 566.5 7.50331 628.5C-9.49669 690.5 25.4999 712.5 71.4997 729C228.844 785.439 55.5 841 178 852.5" stroke="#62C5A9" stroke-width="5" stroke-linecap="round" stroke-dasharray="25 25"/>
<path d="M274 853C486 860 461 901 552 954C624.8 996.4 831.333 997 925.5 992" stroke="#62C5A9" stroke-width="5" stroke-linecap="round" stroke-dasharray="25 25"/>
<path d="M327.059 479.148C328.823 473.554 336.74 473.554 338.504 479.148L357.752 540.196C358.972 544.062 356.084 548 352.03 548H313.533C309.479 548 306.592 544.062 307.811 540.196L327.059 479.148Z" fill="#ADF0DD"/>
<path d="M306.825 497.395C309.135 493.395 314.908 493.395 317.218 497.395L341.486 539.428C343.795 543.428 340.908 548.428 336.289 548.428H287.754C283.135 548.428 280.248 543.428 282.558 539.428L306.825 497.395Z" fill="#ADF0DD"/>
<path d="M359.316 511.492C361.648 507.616 367.266 507.616 369.598 511.492L386.416 539.441C388.823 543.44 385.943 548.535 381.275 548.535H347.638C342.971 548.535 340.091 543.44 342.497 539.441L359.316 511.492Z" fill="#ADF0DD"/>
<path d="M332.525 480.936C332.946 477.805 337.121 477.029 338.638 479.8V479.8C338.729 479.965 338.805 480.138 338.866 480.316L341.985 489.465L347.549 508.299L351.644 521.118C352.17 522.765 351.961 524.558 351.069 526.039L346.97 532.847C344.916 536.259 348.611 540.23 352.162 538.427V538.427C352.919 538.042 353.533 537.424 353.913 536.665L355.09 534.311C356.317 531.856 359.41 531.02 361.707 532.522V532.522C364.7 534.479 368.683 532.413 368.807 528.84L369.165 518.572L369.379 513.008V513.008C369.328 512.496 370.007 512.271 370.272 512.712L380.081 529.059L383.933 535.266L388.641 543.185V543.185C390.05 545.533 388.35 548.518 385.612 548.504L287.781 548.009C286.621 548.003 285.49 547.645 284.537 546.983V546.983C280.549 544.209 281.604 538.042 286.288 536.752L296.966 533.81C297.582 533.64 298.222 533.57 298.86 533.602L311.368 534.229C315.332 534.427 318.393 530.791 317.522 526.919L317.062 524.873C316.983 524.526 316.936 524.172 316.921 523.816L316.542 515.104C316.525 514.707 316.555 514.309 316.632 513.918L317.036 511.867C317.797 508.002 322.958 507.174 324.889 510.607L325.937 512.47C327.458 515.172 331.505 514.601 332.218 511.583L332.791 509.155C333.217 507.348 335.547 506.84 336.687 508.306V508.306C338.204 510.256 341.291 508.627 340.537 506.275L335.783 491.435C335.638 490.98 335.428 490.549 335.16 490.155L332.834 486.734C332.249 485.874 332.002 484.829 332.141 483.799L332.525 480.936Z" fill="#62C5A9"/>
<path d="M352.206 476.698L349 476L352.322 478.187C352.853 478.536 353.424 478.819 354.023 479.029L354.457 479.181C355.27 479.467 356 479.951 356.58 480.589C357.266 481.345 358.454 481.345 359.141 480.589L359.307 480.406C359.781 479.884 360.345 479.452 360.973 479.13L362.909 478.137L366 476L364.21 476.325C362.401 476.652 360.683 477.36 359.168 478.401L358.786 478.663C358.156 479.096 357.335 479.132 356.67 478.757L354.715 477.654C353.931 477.211 353.086 476.889 352.206 476.698Z" fill="#62C5A9"/>
<path d="M347.578 485.354L346 485L348.15 486.458C348.493 486.691 348.863 486.879 349.252 487.02L349.529 487.12C350.056 487.311 350.527 487.632 350.898 488.052C351.341 488.555 352.125 488.555 352.568 488.052L352.676 487.929C352.978 487.587 353.34 487.302 353.744 487.088L355 486.425L357 485L356.057 485.176C354.745 485.421 353.502 485.947 352.413 486.718C351.958 487.04 351.357 487.067 350.876 486.787L350.133 486.355C349.338 485.893 348.476 485.555 347.578 485.354Z" fill="#62C5A9"/>
<path d="M362.732 490.15L362 490L363.171 490.728C363.359 490.845 363.56 490.939 363.77 491.009L363.928 491.061C364.214 491.156 364.472 491.319 364.681 491.536C364.924 491.789 365.329 491.789 365.572 491.536L365.63 491.476C365.802 491.297 366.005 491.15 366.228 491.042L366.909 490.712L368 490L367.467 490.091C366.763 490.212 366.09 490.475 365.491 490.864C365.244 491.024 364.929 491.037 364.669 490.899L364.382 490.746C363.863 490.469 363.307 490.269 362.732 490.15Z" fill="#62C5A9"/>
</svg>
