<svg width="317" height="555" viewBox="0 0 317 555" fill="none" xmlns="http://www.w3.org/2000/svg">
<circle cx="129.364" cy="27.5" r="22.5" stroke="#62C5A9" stroke-width="10"/>
<path d="M66.9993 287.5C-29.5008 287.5 -6.63593 380.5 67 406.5C127.621 427.904 130 463 130 498.5" stroke="#62C5A9" stroke-width="5" stroke-linecap="round" stroke-dasharray="25 25"/>
<path d="M127 75C116 133.5 238.705 144.251 259 151.5C336 179 318.711 236 291 265C269.5 287.5 225 287.5 195 287.5" stroke="#62C5A9" stroke-width="5" stroke-linecap="round" stroke-dasharray="25 25"/>
<path d="M128.059 239.148C129.823 233.554 137.74 233.554 139.504 239.148L158.752 300.196C159.972 304.062 157.084 308 153.03 308H114.533C110.479 308 107.592 304.062 108.811 300.196L128.059 239.148Z" fill="#ADF0DD"/>
<path d="M107.825 257.395C110.135 253.395 115.908 253.395 118.218 257.395L142.486 299.428C144.795 303.428 141.908 308.428 137.289 308.428H88.7538C84.135 308.428 81.2482 303.428 83.5576 299.428L107.825 257.395Z" fill="#ADF0DD"/>
<path d="M160.316 271.492C162.648 267.616 168.266 267.616 170.598 271.492L187.416 299.441C189.823 303.44 186.943 308.535 182.275 308.535H148.638C143.971 308.535 141.091 303.44 143.497 299.441L160.316 271.492Z" fill="#ADF0DD"/>
<path d="M133.525 240.936C133.946 237.805 138.121 237.029 139.638 239.8V239.8C139.729 239.965 139.805 240.138 139.866 240.316L142.985 249.465L148.549 268.299L152.644 281.118C153.17 282.765 152.961 284.558 152.069 286.039L147.97 292.847C145.916 296.259 149.611 300.23 153.162 298.427V298.427C153.919 298.042 154.533 297.424 154.913 296.665L156.09 294.311C157.317 291.856 160.41 291.02 162.707 292.522V292.522C165.7 294.479 169.683 292.413 169.807 288.84L170.165 278.572L170.379 273.008V273.008C170.328 272.496 171.007 272.271 171.272 272.712L181.081 289.059L184.933 295.266L189.641 303.185V303.185C191.05 305.533 189.35 308.518 186.612 308.504L88.781 308.009C87.6207 308.003 86.4895 307.645 85.537 306.983V306.983C81.5493 304.209 82.6045 298.042 87.2877 296.752L97.966 293.81C98.5822 293.64 99.2215 293.57 99.8599 293.602L112.368 294.229C116.332 294.427 119.393 290.791 118.522 286.919L118.062 284.873C117.983 284.526 117.936 284.172 117.921 283.816L117.542 275.104C117.525 274.707 117.555 274.309 117.632 273.918L118.036 271.867C118.797 268.002 123.958 267.174 125.889 270.607L126.937 272.47C128.458 275.172 132.505 274.601 133.218 271.583L133.791 269.155C134.217 267.348 136.547 266.84 137.687 268.306V268.306C139.204 270.256 142.291 268.627 141.537 266.275L136.783 251.435C136.638 250.98 136.428 250.549 136.16 250.155L133.834 246.734C133.249 245.874 133.002 244.829 133.141 243.799L133.525 240.936Z" fill="#62C5A9"/>
<path d="M153.206 236.698L150 236L153.322 238.187C153.853 238.536 154.424 238.819 155.023 239.029L155.457 239.181C156.27 239.467 157 239.951 157.58 240.589C158.266 241.345 159.454 241.345 160.141 240.589L160.307 240.406C160.781 239.884 161.345 239.452 161.973 239.13L163.909 238.137L167 236L165.21 236.325C163.401 236.652 161.683 237.36 160.168 238.401L159.786 238.663C159.156 239.096 158.335 239.132 157.67 238.757L155.715 237.654C154.931 237.211 154.086 236.889 153.206 236.698Z" fill="#62C5A9"/>
<path d="M148.578 245.354L147 245L149.15 246.458C149.493 246.691 149.863 246.879 150.252 247.02L150.529 247.12C151.056 247.311 151.527 247.632 151.898 248.052C152.341 248.555 153.125 248.555 153.568 248.052L153.676 247.929C153.978 247.587 154.34 247.302 154.744 247.088L156 246.425L158 245L157.057 245.176C155.745 245.421 154.502 245.947 153.413 246.718C152.958 247.04 152.357 247.067 151.876 246.787L151.133 246.355C150.338 245.893 149.476 245.555 148.578 245.354Z" fill="#62C5A9"/>
<path d="M163.732 250.15L163 250L164.171 250.728C164.359 250.845 164.56 250.939 164.77 251.009L164.928 251.061C165.214 251.156 165.472 251.319 165.681 251.536C165.924 251.789 166.329 251.789 166.572 251.536L166.63 251.476C166.802 251.297 167.005 251.15 167.228 251.042L167.909 250.712L169 250L168.467 250.091C167.763 250.212 167.09 250.475 166.491 250.864C166.244 251.024 165.929 251.037 165.669 250.899L165.382 250.746C164.863 250.469 164.307 250.269 163.732 250.15Z" fill="#62C5A9"/>
<path d="M113.318 518L144.999 549.682" stroke="#62C5A9" stroke-width="10" stroke-linecap="round"/>
<path d="M144.681 518.317L113 549.999" stroke="#62C5A9" stroke-width="10" stroke-linecap="round"/>
</svg>
